<?xml version="1.0" encoding="UTF-8" standalone="no"?>
<!DOCTYPE svg PUBLIC "-//W3C//DTD SVG 1.1//EN" "http://www.w3.org/Graphics/SVG/1.1/DTD/svg11.dtd">
<svg xmlns="http://www.w3.org/2000/svg" version="1.1" viewBox="0 0 160 150">
<g stroke-width="2.0" fill="none" stroke-linecap="butt">
<path stroke="#f7f7f7" vector-effect="non-scaling-stroke" d="
  M 160.00 147.56
  Q 159.56 146.51 158.51 144.92
  C 158.34 144.67 158.36 144.33 158.56 144.11
  Q 159.94 142.50 159.77 140.94
  C 159.71 140.43 159.14 140.15 158.70 140.43
  Q 156.28 141.95 154.76 144.32
  C 154.59 144.59 154.57 144.92 154.71 145.20
  Q 155.32 146.38 156.25 147.32
  Q 156.57 147.64 157.55 148.83
  Q 158.79 150.35 160.00 148.31"
/>
<path stroke="#ff8080" vector-effect="non-scaling-stroke" d="
  M 153.31 22.93
  C 153.31 11.93 144.40 3.02 133.40 3.02
  L 29.42 3.02
  C 18.42 3.02 9.51 11.93 9.51 22.93
  L 9.51 127.23
  C 9.51 138.23 18.42 147.14 29.42 147.14
  L 133.40 147.14
  C 144.40 147.14 153.31 138.23 153.31 127.23
  L 153.31 22.93"
/>
<path stroke="#ff8080" vector-effect="non-scaling-stroke" d="
  M 78.03 55.21
  Q 84.54 46.36 95.14 40.35
  Q 98.09 38.68 101.52 38.75
  Q 104.57 38.81 105.39 41.75
  Q 106.88 47.06 105.84 53.01
  C 105.78 53.34 105.86 53.66 106.06 53.89
  Q 107.21 55.23 108.37 54.48
  Q 109.15 53.97 109.44 52.57
  Q 110.18 48.97 109.96 45.33
  Q 109.70 41.22 107.82 38.56
  Q 104.77 34.23 99.37 34.90
  Q 96.19 35.29 91.51 38.08
  Q 80.39 44.71 73.44 54.44
  Q 71.90 56.58 69.79 56.61
  Q 67.83 56.63 67.71 56.65
  Q 64.54 57.07 60.73 57.38
  C 60.36 57.41 60.03 57.15 59.96 56.79
  Q 59.15 52.54 58.91 48.00
  Q 58.71 44.20 60.18 40.72
  Q 61.68 37.19 64.75 37.25
  Q 68.23 37.32 72.43 40.31
  Q 73.92 41.37 74.58 41.59
  Q 76.75 42.32 76.97 39.76
  C 77.00 39.45 76.88 39.13 76.63 38.90
  Q 73.70 36.23 70.14 34.71
  Q 66.03 32.96 62.70 33.76
  Q 59.39 34.56 57.53 37.49
  Q 56.22 39.55 55.65 43.23
  Q 54.64 49.84 56.15 56.97
  C 56.31 57.72 55.81 58.45 55.05 58.57
  Q 46.35 59.91 39.19 65.69
  Q 35.30 68.82 35.78 73.26
  Q 36.15 76.79 39.15 79.97
  Q 41.94 82.93 45.97 84.69
  C 46.90 85.09 47.98 84.61 48.29 83.64
  Q 48.83 81.91 47.14 81.05
  Q 43.43 79.16 40.93 75.85
  Q 38.27 72.33 40.69 69.69
  Q 46.56 63.25 56.70 62.35
  C 56.96 62.33 57.22 62.51 57.32 62.79
  L 60.34 71.25
  C 60.70 72.26 60.65 73.30 60.22 74.12
  Q 55.96 82.22 53.28 90.89
  Q 50.79 98.99 51.75 105.75
  Q 53.08 115.07 61.44 114.41
  Q 64.51 114.17 67.97 112.50
  Q 70.93 111.07 73.83 108.93
  C 74.49 108.44 74.69 107.54 74.29 106.82
  Q 73.33 105.08 71.66 106.21
  Q 68.22 108.53 64.34 109.82
  Q 61.37 110.81 59.58 110.53
  Q 56.61 110.05 55.75 106.75
  Q 54.51 101.96 55.95 95.99
  Q 58.15 86.83 62.26 78.78
  Q 62.73 77.86 63.18 78.80
  Q 70.45 94.14 81.69 106.81
  Q 85.35 110.95 90.37 113.84
  Q 95.43 116.76 99.20 116.56
  Q 103.33 116.35 105.67 112.84
  Q 107.24 110.49 107.78 106.22
  Q 108.40 101.39 107.75 97.00
  Q 105.60 82.53 98.92 69.16
  Q 98.06 67.43 96.28 68.18
  Q 94.58 68.90 95.56 70.94
  Q 100.93 82.12 103.56 94.24
  Q 105.05 101.16 103.55 108.06
  Q 102.78 111.55 100.02 112.45
  Q 98.00 113.11 95.14 111.81
  Q 89.28 109.16 84.19 103.56
  Q 72.84 91.09 65.60 74.18
  C 65.29 73.46 65.33 72.68 65.72 72.11
  L 72.95 61.28
  C 73.38 60.64 74.16 60.25 75.03 60.25
  Q 92.51 60.23 107.74 65.04
  Q 112.25 66.46 118.81 70.44
  Q 121.94 72.33 122.73 75.14
  Q 123.35 77.31 121.68 79.50
  Q 118.88 83.18 114.39 85.01
  Q 112.49 85.80 113.19 87.03
  Q 114.10 88.64 115.84 87.99
  Q 119.75 86.55 122.62 84.16
  Q 125.94 81.39 126.72 78.09
  Q 127.70 73.95 124.44 70.31
  Q 121.70 67.26 117.74 64.97
  Q 114.75 63.24 109.92 61.64
  Q 94.80 56.65 78.68 56.50
  Q 77.10 56.48 78.03 55.21"
/>
<path stroke="#f08283" vector-effect="non-scaling-stroke" d="
  M 63.62 68.13
  L 67.96 61.42
  C 68.09 61.22 67.99 60.95 67.76 60.91
  Q 64.69 60.40 61.73 61.34
  C 61.45 61.43 61.29 61.72 61.37 61.99
  L 63.19 68.07
  Q 63.33 68.57 63.62 68.13"
/>
</g>
<path fill="#ffffff" d="
  M 0.00 0.00
  Q 80.00 0.00 160.00 0.00
  Q 160.00 73.78 160.00 147.56
  Q 159.56 146.51 158.51 144.92
  C 158.34 144.67 158.36 144.33 158.56 144.11
  Q 159.94 142.50 159.77 140.94
  C 159.71 140.43 159.14 140.15 158.70 140.43
  Q 156.28 141.95 154.76 144.32
  C 154.59 144.59 154.57 144.92 154.71 145.20
  Q 155.32 146.38 156.25 147.32
  Q 156.57 147.64 157.55 148.83
  Q 158.79 150.35 160.00 148.31
  Q 160.00 149.16 160.00 150.00
  Q 80.00 150.00 0.00 150.00
  Q 0.00 75.00 0.00 0.00
  Z
  M 153.31 22.93
  C 153.31 11.93 144.40 3.02 133.40 3.02
  L 29.42 3.02
  C 18.42 3.02 9.51 11.93 9.51 22.93
  L 9.51 127.23
  C 9.51 138.23 18.42 147.14 29.42 147.14
  L 133.40 147.14
  C 144.40 147.14 153.31 138.23 153.31 127.23
  L 153.31 22.93
  Z"
/>
<path fill="#ff0000" d="
  M 153.31 127.23
  C 153.31 138.23 144.40 147.14 133.40 147.14
  L 29.42 147.14
  C 18.42 147.14 9.51 138.23 9.51 127.23
  L 9.51 22.93
  C 9.51 11.93 18.42 3.02 29.42 3.02
  L 133.40 3.02
  C 144.40 3.02 153.31 11.93 153.31 22.93
  L 153.31 127.23
  Z
  M 78.03 55.21
  Q 84.54 46.36 95.14 40.35
  Q 98.09 38.68 101.52 38.75
  Q 104.57 38.81 105.39 41.75
  Q 106.88 47.06 105.84 53.01
  C 105.78 53.34 105.86 53.66 106.06 53.89
  Q 107.21 55.23 108.37 54.48
  Q 109.15 53.97 109.44 52.57
  Q 110.18 48.97 109.96 45.33
  Q 109.70 41.22 107.82 38.56
  Q 104.77 34.23 99.37 34.90
  Q 96.19 35.29 91.51 38.08
  Q 80.39 44.71 73.44 54.44
  Q 71.90 56.58 69.79 56.61
  Q 67.83 56.63 67.71 56.65
  Q 64.54 57.07 60.73 57.38
  C 60.36 57.41 60.03 57.15 59.96 56.79
  Q 59.15 52.54 58.91 48.00
  Q 58.71 44.20 60.18 40.72
  Q 61.68 37.19 64.75 37.25
  Q 68.23 37.32 72.43 40.31
  Q 73.92 41.37 74.58 41.59
  Q 76.75 42.32 76.97 39.76
  C 77.00 39.45 76.88 39.13 76.63 38.90
  Q 73.70 36.23 70.14 34.71
  Q 66.03 32.96 62.70 33.76
  Q 59.39 34.56 57.53 37.49
  Q 56.22 39.55 55.65 43.23
  Q 54.64 49.84 56.15 56.97
  C 56.31 57.72 55.81 58.45 55.05 58.57
  Q 46.35 59.91 39.19 65.69
  Q 35.30 68.82 35.78 73.26
  Q 36.15 76.79 39.15 79.97
  Q 41.94 82.93 45.97 84.69
  C 46.90 85.09 47.98 84.61 48.29 83.64
  Q 48.83 81.91 47.14 81.05
  Q 43.43 79.16 40.93 75.85
  Q 38.27 72.33 40.69 69.69
  Q 46.56 63.25 56.70 62.35
  C 56.96 62.33 57.22 62.51 57.32 62.79
  L 60.34 71.25
  C 60.70 72.26 60.65 73.30 60.22 74.12
  Q 55.96 82.22 53.28 90.89
  Q 50.79 98.99 51.75 105.75
  Q 53.08 115.07 61.44 114.41
  Q 64.51 114.17 67.97 112.50
  Q 70.93 111.07 73.83 108.93
  C 74.49 108.44 74.69 107.54 74.29 106.82
  Q 73.33 105.08 71.66 106.21
  Q 68.22 108.53 64.34 109.82
  Q 61.37 110.81 59.58 110.53
  Q 56.61 110.05 55.75 106.75
  Q 54.51 101.96 55.95 95.99
  Q 58.15 86.83 62.26 78.78
  Q 62.73 77.86 63.18 78.80
  Q 70.45 94.14 81.69 106.81
  Q 85.35 110.95 90.37 113.84
  Q 95.43 116.76 99.20 116.56
  Q 103.33 116.35 105.67 112.84
  Q 107.24 110.49 107.78 106.22
  Q 108.40 101.39 107.75 97.00
  Q 105.60 82.53 98.92 69.16
  Q 98.06 67.43 96.28 68.18
  Q 94.58 68.90 95.56 70.94
  Q 100.93 82.12 103.56 94.24
  Q 105.05 101.16 103.55 108.06
  Q 102.78 111.55 100.02 112.45
  Q 98.00 113.11 95.14 111.81
  Q 89.28 109.16 84.19 103.56
  Q 72.84 91.09 65.60 74.18
  C 65.29 73.46 65.33 72.68 65.72 72.11
  L 72.95 61.28
  C 73.38 60.64 74.16 60.25 75.03 60.25
  Q 92.51 60.23 107.74 65.04
  Q 112.25 66.46 118.81 70.44
  Q 121.94 72.33 122.73 75.14
  Q 123.35 77.31 121.68 79.50
  Q 118.88 83.18 114.39 85.01
  Q 112.49 85.80 113.19 87.03
  Q 114.10 88.64 115.84 87.99
  Q 119.75 86.55 122.62 84.16
  Q 125.94 81.39 126.72 78.09
  Q 127.70 73.95 124.44 70.31
  Q 121.70 67.26 117.74 64.97
  Q 114.75 63.24 109.92 61.64
  Q 94.80 56.65 78.68 56.50
  Q 77.10 56.48 78.03 55.21
  Z"
/>
<path fill="#ffffff" d="
  M 78.03 55.21
  Q 77.10 56.48 78.68 56.50
  Q 94.80 56.65 109.92 61.64
  Q 114.75 63.24 117.74 64.97
  Q 121.70 67.26 124.44 70.31
  Q 127.70 73.95 126.72 78.09
  Q 125.94 81.39 122.62 84.16
  Q 119.75 86.55 115.84 87.99
  Q 114.10 88.64 113.19 87.03
  Q 112.49 85.80 114.39 85.01
  Q 118.88 83.18 121.68 79.50
  Q 123.35 77.31 122.73 75.14
  Q 121.94 72.33 118.81 70.44
  Q 112.25 66.46 107.74 65.04
  Q 92.51 60.23 75.03 60.25
  C 74.16 60.25 73.38 60.64 72.95 61.28
  L 65.72 72.11
  C 65.33 72.68 65.29 73.46 65.60 74.18
  Q 72.84 91.09 84.19 103.56
  Q 89.28 109.16 95.14 111.81
  Q 98.00 113.11 100.02 112.45
  Q 102.78 111.55 103.55 108.06
  Q 105.05 101.16 103.56 94.24
  Q 100.93 82.12 95.56 70.94
  Q 94.58 68.90 96.28 68.18
  Q 98.06 67.43 98.92 69.16
  Q 105.60 82.53 107.75 97.00
  Q 108.40 101.39 107.78 106.22
  Q 107.24 110.49 105.67 112.84
  Q 103.33 116.35 99.20 116.56
  Q 95.43 116.76 90.37 113.84
  Q 85.35 110.95 81.69 106.81
  Q 70.45 94.14 63.18 78.80
  Q 62.73 77.86 62.26 78.78
  Q 58.15 86.83 55.95 95.99
  Q 54.51 101.96 55.75 106.75
  Q 56.61 110.05 59.58 110.53
  Q 61.37 110.81 64.34 109.82
  Q 68.22 108.53 71.66 106.21
  Q 73.33 105.08 74.29 106.82
  C 74.69 107.54 74.49 108.44 73.83 108.93
  Q 70.93 111.07 67.97 112.50
  Q 64.51 114.17 61.44 114.41
  Q 53.08 115.07 51.75 105.75
  Q 50.79 98.99 53.28 90.89
  Q 55.96 82.22 60.22 74.12
  C 60.65 73.30 60.70 72.26 60.34 71.25
  L 57.32 62.79
  C 57.22 62.51 56.96 62.33 56.70 62.35
  Q 46.56 63.25 40.69 69.69
  Q 38.27 72.33 40.93 75.85
  Q 43.43 79.16 47.14 81.05
  Q 48.83 81.91 48.29 83.64
  C 47.98 84.61 46.90 85.09 45.97 84.69
  Q 41.94 82.93 39.15 79.97
  Q 36.15 76.79 35.78 73.26
  Q 35.30 68.82 39.19 65.69
  Q 46.35 59.91 55.05 58.57
  C 55.81 58.45 56.31 57.72 56.15 56.97
  Q 54.64 49.84 55.65 43.23
  Q 56.22 39.55 57.53 37.49
  Q 59.39 34.56 62.70 33.76
  Q 66.03 32.96 70.14 34.71
  Q 73.70 36.23 76.63 38.90
  C 76.88 39.13 77.00 39.45 76.97 39.76
  Q 76.75 42.32 74.58 41.59
  Q 73.92 41.37 72.43 40.31
  Q 68.23 37.32 64.75 37.25
  Q 61.68 37.19 60.18 40.72
  Q 58.71 44.20 58.91 48.00
  Q 59.15 52.54 59.96 56.79
  C 60.03 57.15 60.36 57.41 60.73 57.38
  Q 64.54 57.07 67.71 56.65
  Q 67.83 56.63 69.79 56.61
  Q 71.90 56.58 73.44 54.44
  Q 80.39 44.71 91.51 38.08
  Q 96.19 35.29 99.37 34.90
  Q 104.77 34.23 107.82 38.56
  Q 109.70 41.22 109.96 45.33
  Q 110.18 48.97 109.44 52.57
  Q 109.15 53.97 108.37 54.48
  Q 107.21 55.23 106.06 53.89
  C 105.86 53.66 105.78 53.34 105.84 53.01
  Q 106.88 47.06 105.39 41.75
  Q 104.57 38.81 101.52 38.75
  Q 98.09 38.68 95.14 40.35
  Q 84.54 46.36 78.03 55.21
  Z
  M 63.62 68.13
  L 67.96 61.42
  C 68.09 61.22 67.99 60.95 67.76 60.91
  Q 64.69 60.40 61.73 61.34
  C 61.45 61.43 61.29 61.72 61.37 61.99
  L 63.19 68.07
  Q 63.33 68.57 63.62 68.13
  Z"
/>
<path fill="#e10406" d="
  M 63.62 68.13
  Q 63.33 68.57 63.19 68.07
  L 61.37 61.99
  C 61.29 61.72 61.45 61.43 61.73 61.34
  Q 64.69 60.40 67.76 60.91
  C 67.99 60.95 68.09 61.22 67.96 61.42
  L 63.62 68.13
  Z"
/>
<path fill="#eeeeef" d="
  M 160.00 147.56
  Q 160.00 147.94 160.00 148.31
  Q 158.79 150.35 157.55 148.83
  Q 156.57 147.64 156.25 147.32
  Q 155.32 146.38 154.71 145.20
  C 154.57 144.92 154.59 144.59 154.76 144.32
  Q 156.28 141.95 158.70 140.43
  C 159.14 140.15 159.71 140.43 159.77 140.94
  Q 159.94 142.50 158.56 144.11
  C 158.36 144.33 158.34 144.67 158.51 144.92
  Q 159.56 146.51 160.00 147.56
  Z"
/>
</svg>
