<?xml version="1.0" encoding="UTF-8" standalone="no"?>
<!DOCTYPE svg PUBLIC "-//W3C//DTD SVG 1.1//EN" "http://www.w3.org/Graphics/SVG/1.1/DTD/svg11.dtd">
<svg xmlns="http://www.w3.org/2000/svg" version="1.1" viewBox="0 0 220 220">
<g stroke-width="2.0" fill="none" stroke-linecap="butt">
<path stroke="#fa9190" vector-effect="non-scaling-stroke" d="
  M 220.00 28.06
  Q 218.79 14.30 207.63 6.39
  Q 199.86 0.89 192.50 0.75
  Q 165.08 0.22 79.75 0.62
  Q 74.34 0.65 64.25 0.50
  Q 52.53 0.33 37.57 0.59
  Q 26.77 0.78 22.10 2.30
  Q 14.17 4.89 8.81 11.31
  Q 3.45 17.75 2.12 26.09
  Q 1.75 28.44 1.75 41.91
  Q 1.75 114.96 1.75 188.00
  Q 1.75 202.14 11.50 211.09
  Q 15.76 215.00 21.03 216.94
  Q 26.37 218.90 32.25 218.94
  Q 108.47 219.45 184.69 219.00
  Q 193.87 218.94 195.75 218.50
  Q 216.50 213.61 220.00 192.56"
/>
<path stroke="#f9f7f7" vector-effect="non-scaling-stroke" d="
  M 12.65 2.90
  C 12.65 2.09 11.99 1.43 11.18 1.43
  C 10.37 1.43 9.71 2.09 9.71 2.90
  C 9.71 3.71 10.37 4.37 11.18 4.37
  C 11.99 4.37 12.65 3.71 12.65 2.90"
/>
<path stroke="#f9f7f7" vector-effect="non-scaling-stroke" d="
  M 212.5365 3.3198
  C 212.78 2.70 212.38 1.95 211.6274 1.6557
  C 210.88 1.36 210.07 1.62 209.8235 2.2402
  C 209.58 2.86 209.98 3.61 210.7326 3.9043
  C 211.48 4.20 212.29 3.94 212.5365 3.3198"
/>
<path stroke="#f22321" vector-effect="non-scaling-stroke" d="
  M 40.05 18.85
  Q 44.42 15.44 47.87 12.64
  Q 48.58 12.07 48.72 11.53
  Q 49.01 10.31 46.65 10.98
  C 45.99 11.17 45.33 10.70 45.29 10.02
  Q 45.19 8.57 43.75 7.68
  C 43.47 7.51 43.27 7.26 43.17 6.96
  Q 42.24 4.18 40.15 6.34
  C 39.54 6.97 39.46 7.94 39.95 8.66
  Q 41.62 11.13 42.88 11.83
  Q 44.83 12.92 43.48 14.38
  Q 42.70 15.23 41.72 15.86
  Q 39.50 17.29 39.32 15.31
  C 39.30 15.03 39.41 14.72 39.63 14.42
  Q 40.90 12.73 38.08 13.24
  C 37.40 13.36 36.75 12.97 36.52 12.32
  Q 35.93 10.56 34.69 11.69
  Q 32.56 13.63 35.56 14.94
  Q 37.72 15.88 38.33 18.27
  C 38.53 19.03 39.44 19.33 40.05 18.85"
/>
<path stroke="#f22321" vector-effect="non-scaling-stroke" d="
  M 24.01 25.19
  Q 23.96 24.02 24.82 23.23
  C 25.09 22.98 25.26 22.70 25.28 22.47
  Q 25.35 21.72 24.50 22.28
  Q 20.43 24.90 25.49 29.30
  Q 27.62 31.14 26.91 28.41
  Q 26.74 27.75 28.25 26.03
  C 28.44 25.82 28.54 25.59 28.54 25.38
  Q 28.53 24.92 28.17 25.06
  Q 27.98 25.14 27.80 25.42
  Q 26.48 27.55 24.45 26.01
  C 24.18 25.81 24.02 25.51 24.01 25.19"
/>
<path stroke="#f38888" vector-effect="non-scaling-stroke" d="
  M 49.55 75.56
  L 73.05 75.50
  C 73.52 75.50 73.93 75.80 74.08 76.24
  Q 75.59 80.67 77.60 85.17
  Q 78.58 87.38 80.59 88.00
  Q 82.39 88.56 84.30 87.58
  Q 87.76 85.80 86.50 81.50
  Q 83.98 72.90 67.26 30.87
  Q 66.22 28.28 64.83 27.30
  Q 62.77 25.85 60.24 26.39
  Q 58.19 26.83 56.89 28.54
  Q 55.78 29.99 54.94 32.19
  Q 45.95 55.59 37.08 79.04
  Q 35.93 82.10 35.96 83.58
  Q 36.03 86.61 38.90 87.78
  Q 40.49 88.43 42.15 88.06
  Q 44.28 87.59 44.94 85.94
  Q 46.92 80.99 48.88 76.03
  C 48.99 75.75 49.25 75.56 49.55 75.56"
/>
<path stroke="#f38888" vector-effect="non-scaling-stroke" d="
  M 143.02 35.69
  Q 144.45 36.75 146.24 36.75
  L 156.97 36.75
  C 157.55 36.75 158.02 37.22 158.01 37.80
  Q 157.82 60.04 158.21 81.17
  Q 158.26 83.49 158.98 84.66
  Q 160.12 86.52 162.25 86.75
  Q 168.76 87.45 168.50 80.50
  Q 168.17 71.61 168.68 37.44
  C 168.69 37.16 168.91 36.94 169.19 36.93
  Q 174.81 36.80 180.42 36.58
  Q 182.64 36.49 183.82 35.58
  Q 185.54 34.26 185.75 32.25
  Q 186.16 28.40 183.24 26.96
  Q 181.79 26.25 178.14 26.25
  Q 164.21 26.25 150.29 26.25
  Q 145.65 26.25 145.23 26.33
  Q 142.13 26.90 141.14 30.04
  Q 140.64 31.64 141.13 33.08
  Q 141.66 34.68 143.02 35.69"
/>
<path stroke="#f22321" vector-effect="non-scaling-stroke" d="
  M 135.88 100.17
  Q 131.39 96.88 133.69 101.06
  Q 135.64 104.61 132.50 103.75
  Q 128.04 102.54 129.85 98.22
  Q 130.46 96.76 129.14 97.63
  Q 127.64 98.62 127.54 100.35
  Q 127.48 101.61 128.44 103.07
  Q 132.33 108.93 136.31 102.32
  C 136.75 101.60 136.56 100.66 135.88 100.17"
/>
<path stroke="#f22321" vector-effect="non-scaling-stroke" d="
  M 106.47 132.32
  Q 107.10 131.81 107.70 131.26
  Q 108.37 130.65 108.46 130.04
  Q 108.57 129.17 107.94 128.51
  C 107.69 128.25 107.56 127.93 107.62 127.68
  Q 107.91 126.32 109.56 127.19
  Q 112.16 128.54 112.88 126.24
  C 112.97 125.95 112.87 125.62 112.64 125.41
  L 108.56 121.64
  C 108.31 121.41 108.01 121.28 107.69 121.25
  Q 105.58 121.07 106.53 122.52
  Q 107.04 123.31 107.06 123.74
  Q 107.14 125.06 105.25 124.25
  Q 101.73 122.74 102.44 125.96
  C 102.50 126.25 102.70 126.52 102.99 126.71
  Q 104.22 127.53 105.17 128.65
  Q 105.76 129.35 105.72 130.14
  Q 105.62 132.07 103.50 130.50
  Q 102.37 129.66 101.63 130.31
  C 101.42 130.50 101.39 130.84 101.56 131.12
  Q 102.21 132.12 103.27 132.76
  C 103.57 132.94 103.58 133.37 103.30 133.57
  Q 100.05 135.92 98.10 131.31
  C 97.84 130.70 98.09 130.00 98.66 129.68
  Q 101.03 128.35 99.50 128.06
  C 99.19 128.00 98.86 128.08 98.59 128.27
  Q 94.72 130.89 97.13 134.14
  Q 98.41 135.87 99.64 136.58
  Q 101.59 137.70 103.58 135.58
  Q 104.53 134.58 105.34 133.47
  Q 105.82 132.83 106.47 132.32"
/>
<path stroke="#f38888" vector-effect="non-scaling-stroke" d="
  M 151.37 154.95
  Q 154.91 159.45 158.26 164.11
  Q 160.05 166.60 161.26 167.39
  Q 163.72 169.00 166.09 167.64
  Q 167.44 166.86 169.94 163.40
  Q 172.92 159.29 175.91 155.23
  Q 176.75 154.08 176.75 155.51
  Q 176.75 170.13 176.67 184.50
  Q 176.64 189.28 180.56 190.64
  Q 182.06 191.16 183.44 190.69
  Q 185.01 190.16 185.90 188.87
  Q 186.74 187.67 186.79 184.93
  Q 187.24 159.28 187.00 139.50
  Q 186.94 134.08 182.43 133.56
  Q 180.38 133.33 178.62 134.84
  Q 176.99 136.23 175.78 138.03
  Q 173.99 140.70 173.95 140.76
  Q 169.28 147.03 164.49 153.77
  C 164.14 154.26 163.42 154.25 163.07 153.76
  Q 156.54 144.38 149.81 135.44
  Q 148.00 133.02 145.29 133.43
  Q 143.05 133.78 141.87 135.55
  Q 140.75 137.22 140.75 139.75
  Q 140.75 161.47 140.75 183.19
  Q 140.75 186.63 141.46 188.19
  Q 142.95 191.45 146.70 190.61
  Q 149.04 190.08 150.00 188.32
  Q 150.97 186.54 150.75 184.00
  Q 150.21 177.86 151.04 155.06
  Q 151.06 154.56 151.37 154.95"
/>
<path stroke="#f22321" vector-effect="non-scaling-stroke" d="
  M 91.46 145.66
  Q 90.82 147.74 92.70 147.20
  Q 93.38 147.01 93.99 146.37
  Q 96.91 143.26 98.79 139.44
  C 98.91 139.20 98.81 138.90 98.56 138.75
  Q 96.36 137.47 94.81 135.44
  Q 92.29 132.15 91.87 135.88
  C 91.83 136.31 92.03 136.72 92.40 136.94
  Q 94.43 138.16 94.67 139.43
  C 94.72 139.72 94.55 140.03 94.24 140.17
  Q 92.49 140.99 90.76 140.17
  C 90.52 140.06 90.36 139.78 90.36 139.45
  Q 90.35 137.80 87.49 139.09
  C 86.65 139.47 86.08 140.28 86.02 141.20
  Q 85.83 144.04 90.22 143.99
  C 91.09 143.98 91.72 144.83 91.46 145.66"
/>
<path stroke="#f38888" vector-effect="non-scaling-stroke" d="
  M 86.5846 158.8619
  C 86.54 146.10 76.16 135.79 63.3940 135.8327
  L 59.1341 135.8476
  C 46.37 135.89 36.06 146.27 36.1049 159.0381
  L 36.1354 167.7981
  C 36.18 180.56 46.56 190.87 59.3260 190.8273
  L 63.5859 190.8124
  C 76.35 190.77 86.66 180.39 86.6151 167.6219
  L 86.5846 158.8619"
/>
<path stroke="#f22321" vector-effect="non-scaling-stroke" d="
  M 26.69 210.56
  Q 27.50 211.13 27.84 210.47
  C 27.95 210.25 27.94 209.91 27.80 209.55
  Q 27.06 207.65 28.31 206.06
  Q 29.91 204.04 27.44 205.19
  Q 22.18 207.62 24.95 202.49
  Q 25.19 202.04 24.71 202.20
  Q 22.41 202.98 21.64 205.26
  C 21.54 205.56 21.60 205.89 21.80 206.14
  Q 23.55 208.35 26.69 210.56"
/>
<path stroke="#f18988" vector-effect="non-scaling-stroke" d="
  M 55.69 58.19
  Q 53.88 63.02 53.42 64.95
  C 53.36 65.20 53.55 65.45 53.82 65.45
  L 69.16 65.44
  C 69.54 65.44 69.80 65.05 69.66 64.69
  L 61.96 44.53
  Q 61.39 43.05 60.83 44.53
  Q 58.21 51.46 55.69 58.19"
/>
<path stroke="#f18988" vector-effect="non-scaling-stroke" d="
  M 68.81 147.19
  Q 64.04 144.09 57.70 145.72
  Q 51.38 147.33 49.40 153.55
  Q 47.26 160.25 47.97 167.02
  Q 48.71 174.04 51.91 177.67
  Q 56.18 182.51 64.25 181.02
  Q 71.05 179.77 73.28 173.30
  Q 75.53 166.77 74.82 160.04
  Q 74.35 155.53 73.42 153.01
  Q 72.06 149.29 68.81 147.19"
/>
</g>
<path fill="#ffffff" d="
  M 0.00 0.00
  Q 110.00 0.00 220.00 0.00
  Q 220.00 14.03 220.00 28.06
  Q 218.79 14.30 207.63 6.39
  Q 199.86 0.89 192.50 0.75
  Q 165.08 0.22 79.75 0.62
  Q 74.34 0.65 64.25 0.50
  Q 52.53 0.33 37.57 0.59
  Q 26.77 0.78 22.10 2.30
  Q 14.17 4.89 8.81 11.31
  Q 3.45 17.75 2.12 26.09
  Q 1.75 28.44 1.75 41.91
  Q 1.75 114.96 1.75 188.00
  Q 1.75 202.14 11.50 211.09
  Q 15.76 215.00 21.03 216.94
  Q 26.37 218.90 32.25 218.94
  Q 108.47 219.45 184.69 219.00
  Q 193.87 218.94 195.75 218.50
  Q 216.50 213.61 220.00 192.56
  Q 220.00 206.28 220.00 220.00
  Q 110.00 220.00 0.00 220.00
  Q 0.00 110.00 0.00 0.00
  Z
  M 12.65 2.90
  C 12.65 2.09 11.99 1.43 11.18 1.43
  C 10.37 1.43 9.71 2.09 9.71 2.90
  C 9.71 3.71 10.37 4.37 11.18 4.37
  C 11.99 4.37 12.65 3.71 12.65 2.90
  Z
  M 212.5365 3.3198
  C 212.78 2.70 212.38 1.95 211.6274 1.6557
  C 210.88 1.36 210.07 1.62 209.8235 2.2402
  C 209.58 2.86 209.98 3.61 210.7326 3.9043
  C 211.48 4.20 212.29 3.94 212.5365 3.3198
  Z"
/>
<path fill="#f42221" d="
  M 220.00 28.06
  Q 220.00 110.31 220.00 192.56
  Q 216.50 213.61 195.75 218.50
  Q 193.87 218.94 184.69 219.00
  Q 108.47 219.45 32.25 218.94
  Q 26.37 218.90 21.03 216.94
  Q 15.76 215.00 11.50 211.09
  Q 1.75 202.14 1.75 188.00
  Q 1.75 114.96 1.75 41.91
  Q 1.75 28.44 2.12 26.09
  Q 3.45 17.75 8.81 11.31
  Q 14.17 4.89 22.10 2.30
  Q 26.77 0.78 37.57 0.59
  Q 52.53 0.33 64.25 0.50
  Q 74.34 0.65 79.75 0.62
  Q 165.08 0.22 192.50 0.75
  Q 199.86 0.89 207.63 6.39
  Q 218.79 14.30 220.00 28.06
  Z
  M 40.05 18.85
  Q 44.42 15.44 47.87 12.64
  Q 48.58 12.07 48.72 11.53
  Q 49.01 10.31 46.65 10.98
  C 45.99 11.17 45.33 10.70 45.29 10.02
  Q 45.19 8.57 43.75 7.68
  C 43.47 7.51 43.27 7.26 43.17 6.96
  Q 42.24 4.18 40.15 6.34
  C 39.54 6.97 39.46 7.94 39.95 8.66
  Q 41.62 11.13 42.88 11.83
  Q 44.83 12.92 43.48 14.38
  Q 42.70 15.23 41.72 15.86
  Q 39.50 17.29 39.32 15.31
  C 39.30 15.03 39.41 14.72 39.63 14.42
  Q 40.90 12.73 38.08 13.24
  C 37.40 13.36 36.75 12.97 36.52 12.32
  Q 35.93 10.56 34.69 11.69
  Q 32.56 13.63 35.56 14.94
  Q 37.72 15.88 38.33 18.27
  C 38.53 19.03 39.44 19.33 40.05 18.85
  Z
  M 24.01 25.19
  Q 23.96 24.02 24.82 23.23
  C 25.09 22.98 25.26 22.70 25.28 22.47
  Q 25.35 21.72 24.50 22.28
  Q 20.43 24.90 25.49 29.30
  Q 27.62 31.14 26.91 28.41
  Q 26.74 27.75 28.25 26.03
  C 28.44 25.82 28.54 25.59 28.54 25.38
  Q 28.53 24.92 28.17 25.06
  Q 27.98 25.14 27.80 25.42
  Q 26.48 27.55 24.45 26.01
  C 24.18 25.81 24.02 25.51 24.01 25.19
  Z
  M 49.55 75.56
  L 73.05 75.50
  C 73.52 75.50 73.93 75.80 74.08 76.24
  Q 75.59 80.67 77.60 85.17
  Q 78.58 87.38 80.59 88.00
  Q 82.39 88.56 84.30 87.58
  Q 87.76 85.80 86.50 81.50
  Q 83.98 72.90 67.26 30.87
  Q 66.22 28.28 64.83 27.30
  Q 62.77 25.85 60.24 26.39
  Q 58.19 26.83 56.89 28.54
  Q 55.78 29.99 54.94 32.19
  Q 45.95 55.59 37.08 79.04
  Q 35.93 82.10 35.96 83.58
  Q 36.03 86.61 38.90 87.78
  Q 40.49 88.43 42.15 88.06
  Q 44.28 87.59 44.94 85.94
  Q 46.92 80.99 48.88 76.03
  C 48.99 75.75 49.25 75.56 49.55 75.56
  Z
  M 143.02 35.69
  Q 144.45 36.75 146.24 36.75
  L 156.97 36.75
  C 157.55 36.75 158.02 37.22 158.01 37.80
  Q 157.82 60.04 158.21 81.17
  Q 158.26 83.49 158.98 84.66
  Q 160.12 86.52 162.25 86.75
  Q 168.76 87.45 168.50 80.50
  Q 168.17 71.61 168.68 37.44
  C 168.69 37.16 168.91 36.94 169.19 36.93
  Q 174.81 36.80 180.42 36.58
  Q 182.64 36.49 183.82 35.58
  Q 185.54 34.26 185.75 32.25
  Q 186.16 28.40 183.24 26.96
  Q 181.79 26.25 178.14 26.25
  Q 164.21 26.25 150.29 26.25
  Q 145.65 26.25 145.23 26.33
  Q 142.13 26.90 141.14 30.04
  Q 140.64 31.64 141.13 33.08
  Q 141.66 34.68 143.02 35.69
  Z
  M 135.88 100.17
  Q 131.39 96.88 133.69 101.06
  Q 135.64 104.61 132.50 103.75
  Q 128.04 102.54 129.85 98.22
  Q 130.46 96.76 129.14 97.63
  Q 127.64 98.62 127.54 100.35
  Q 127.48 101.61 128.44 103.07
  Q 132.33 108.93 136.31 102.32
  C 136.75 101.60 136.56 100.66 135.88 100.17
  Z
  M 106.47 132.32
  Q 107.10 131.81 107.70 131.26
  Q 108.37 130.65 108.46 130.04
  Q 108.57 129.17 107.94 128.51
  C 107.69 128.25 107.56 127.93 107.62 127.68
  Q 107.91 126.32 109.56 127.19
  Q 112.16 128.54 112.88 126.24
  C 112.97 125.95 112.87 125.62 112.64 125.41
  L 108.56 121.64
  C 108.31 121.41 108.01 121.28 107.69 121.25
  Q 105.58 121.07 106.53 122.52
  Q 107.04 123.31 107.06 123.74
  Q 107.14 125.06 105.25 124.25
  Q 101.73 122.74 102.44 125.96
  C 102.50 126.25 102.70 126.52 102.99 126.71
  Q 104.22 127.53 105.17 128.65
  Q 105.76 129.35 105.72 130.14
  Q 105.62 132.07 103.50 130.50
  Q 102.37 129.66 101.63 130.31
  C 101.42 130.50 101.39 130.84 101.56 131.12
  Q 102.21 132.12 103.27 132.76
  C 103.57 132.94 103.58 133.37 103.30 133.57
  Q 100.05 135.92 98.10 131.31
  C 97.84 130.70 98.09 130.00 98.66 129.68
  Q 101.03 128.35 99.50 128.06
  C 99.19 128.00 98.86 128.08 98.59 128.27
  Q 94.72 130.89 97.13 134.14
  Q 98.41 135.87 99.64 136.58
  Q 101.59 137.70 103.58 135.58
  Q 104.53 134.58 105.34 133.47
  Q 105.82 132.83 106.47 132.32
  Z
  M 151.37 154.95
  Q 154.91 159.45 158.26 164.11
  Q 160.05 166.60 161.26 167.39
  Q 163.72 169.00 166.09 167.64
  Q 167.44 166.86 169.94 163.40
  Q 172.92 159.29 175.91 155.23
  Q 176.75 154.08 176.75 155.51
  Q 176.75 170.13 176.67 184.50
  Q 176.64 189.28 180.56 190.64
  Q 182.06 191.16 183.44 190.69
  Q 185.01 190.16 185.90 188.87
  Q 186.74 187.67 186.79 184.93
  Q 187.24 159.28 187.00 139.50
  Q 186.94 134.08 182.43 133.56
  Q 180.38 133.33 178.62 134.84
  Q 176.99 136.23 175.78 138.03
  Q 173.99 140.70 173.95 140.76
  Q 169.28 147.03 164.49 153.77
  C 164.14 154.26 163.42 154.25 163.07 153.76
  Q 156.54 144.38 149.81 135.44
  Q 148.00 133.02 145.29 133.43
  Q 143.05 133.78 141.87 135.55
  Q 140.75 137.22 140.75 139.75
  Q 140.75 161.47 140.75 183.19
  Q 140.75 186.63 141.46 188.19
  Q 142.95 191.45 146.70 190.61
  Q 149.04 190.08 150.00 188.32
  Q 150.97 186.54 150.75 184.00
  Q 150.21 177.86 151.04 155.06
  Q 151.06 154.56 151.37 154.95
  Z
  M 91.46 145.66
  Q 90.82 147.74 92.70 147.20
  Q 93.38 147.01 93.99 146.37
  Q 96.91 143.26 98.79 139.44
  C 98.91 139.20 98.81 138.90 98.56 138.75
  Q 96.36 137.47 94.81 135.44
  Q 92.29 132.15 91.87 135.88
  C 91.83 136.31 92.03 136.72 92.40 136.94
  Q 94.43 138.16 94.67 139.43
  C 94.72 139.72 94.55 140.03 94.24 140.17
  Q 92.49 140.99 90.76 140.17
  C 90.52 140.06 90.36 139.78 90.36 139.45
  Q 90.35 137.80 87.49 139.09
  C 86.65 139.47 86.08 140.28 86.02 141.20
  Q 85.83 144.04 90.22 143.99
  C 91.09 143.98 91.72 144.83 91.46 145.66
  Z
  M 86.5846 158.8619
  C 86.54 146.10 76.16 135.79 63.3940 135.8327
  L 59.1341 135.8476
  C 46.37 135.89 36.06 146.27 36.1049 159.0381
  L 36.1354 167.7981
  C 36.18 180.56 46.56 190.87 59.3260 190.8273
  L 63.5859 190.8124
  C 76.35 190.77 86.66 180.39 86.6151 167.6219
  L 86.5846 158.8619
  Z
  M 26.69 210.56
  Q 27.50 211.13 27.84 210.47
  C 27.95 210.25 27.94 209.91 27.80 209.55
  Q 27.06 207.65 28.31 206.06
  Q 29.91 204.04 27.44 205.19
  Q 22.18 207.62 24.95 202.49
  Q 25.19 202.04 24.71 202.20
  Q 22.41 202.98 21.64 205.26
  C 21.54 205.56 21.60 205.89 21.80 206.14
  Q 23.55 208.35 26.69 210.56
  Z"
/>
<circle fill="#f2eeee" cx="11.18" cy="2.90" r="1.47"/>
<ellipse fill="#f2eeee" cx="0.00" cy="0.00" transform="translate(211.18,2.78) rotate(21.7)" rx="1.46" ry="1.21"/>
<path fill="#f02321" d="
  M 40.05 18.85
  C 39.44 19.33 38.53 19.03 38.33 18.27
  Q 37.72 15.88 35.56 14.94
  Q 32.56 13.63 34.69 11.69
  Q 35.93 10.56 36.52 12.32
  C 36.75 12.97 37.40 13.36 38.08 13.24
  Q 40.90 12.73 39.63 14.42
  C 39.41 14.72 39.30 15.03 39.32 15.31
  Q 39.50 17.29 41.72 15.86
  Q 42.70 15.23 43.48 14.38
  Q 44.83 12.92 42.88 11.83
  Q 41.62 11.13 39.95 8.66
  C 39.46 7.94 39.54 6.97 40.15 6.34
  Q 42.24 4.18 43.17 6.96
  C 43.27 7.26 43.47 7.51 43.75 7.68
  Q 45.19 8.57 45.29 10.02
  C 45.33 10.70 45.99 11.17 46.65 10.98
  Q 49.01 10.31 48.72 11.53
  Q 48.58 12.07 47.87 12.64
  Q 44.42 15.44 40.05 18.85
  Z"
/>
<path fill="#f02321" d="
  M 24.45 26.01
  Q 26.48 27.55 27.80 25.42
  Q 27.98 25.14 28.17 25.06
  Q 28.53 24.92 28.54 25.38
  C 28.54 25.59 28.44 25.82 28.25 26.03
  Q 26.74 27.75 26.91 28.41
  Q 27.62 31.14 25.49 29.30
  Q 20.43 24.90 24.50 22.28
  Q 25.35 21.72 25.28 22.47
  C 25.26 22.70 25.09 22.98 24.82 23.23
  Q 23.96 24.02 24.01 25.19
  C 24.02 25.51 24.18 25.81 24.45 26.01
  Z"
/>
<path fill="#f2eeee" d="
  M 48.88 76.03
  Q 46.92 80.99 44.94 85.94
  Q 44.28 87.59 42.15 88.06
  Q 40.49 88.43 38.90 87.78
  Q 36.03 86.61 35.96 83.58
  Q 35.93 82.10 37.08 79.04
  Q 45.95 55.59 54.94 32.19
  Q 55.78 29.99 56.89 28.54
  Q 58.19 26.83 60.24 26.39
  Q 62.77 25.85 64.83 27.30
  Q 66.22 28.28 67.26 30.87
  Q 83.98 72.90 86.50 81.50
  Q 87.76 85.80 84.30 87.58
  Q 82.39 88.56 80.59 88.00
  Q 78.58 87.38 77.60 85.17
  Q 75.59 80.67 74.08 76.24
  C 73.93 75.80 73.52 75.50 73.05 75.50
  L 49.55 75.56
  C 49.25 75.56 48.99 75.75 48.88 76.03
  Z
  M 55.69 58.19
  Q 53.88 63.02 53.42 64.95
  C 53.36 65.20 53.55 65.45 53.82 65.45
  L 69.16 65.44
  C 69.54 65.44 69.80 65.05 69.66 64.69
  L 61.96 44.53
  Q 61.39 43.05 60.83 44.53
  Q 58.21 51.46 55.69 58.19
  Z"
/>
<path fill="#f2eeee" d="
  M 143.02 35.69
  Q 141.66 34.68 141.13 33.08
  Q 140.64 31.64 141.14 30.04
  Q 142.13 26.90 145.23 26.33
  Q 145.65 26.25 150.29 26.25
  Q 164.21 26.25 178.14 26.25
  Q 181.79 26.25 183.24 26.96
  Q 186.16 28.40 185.75 32.25
  Q 185.54 34.26 183.82 35.58
  Q 182.64 36.49 180.42 36.58
  Q 174.81 36.80 169.19 36.93
  C 168.91 36.94 168.69 37.16 168.68 37.44
  Q 168.17 71.61 168.50 80.50
  Q 168.76 87.45 162.25 86.75
  Q 160.12 86.52 158.98 84.66
  Q 158.26 83.49 158.21 81.17
  Q 157.82 60.04 158.01 37.80
  C 158.02 37.22 157.55 36.75 156.97 36.75
  L 146.24 36.75
  Q 144.45 36.75 143.02 35.69
  Z"
/>
<path fill="#f02321" d="
  M 55.69 58.19
  Q 58.21 51.46 60.83 44.53
  Q 61.39 43.05 61.96 44.53
  L 69.66 64.69
  C 69.80 65.05 69.54 65.44 69.16 65.44
  L 53.82 65.45
  C 53.55 65.45 53.36 65.20 53.42 64.95
  Q 53.88 63.02 55.69 58.19
  Z"
/>
<path fill="#f02321" d="
  M 135.88 100.17
  C 136.56 100.66 136.75 101.60 136.31 102.32
  Q 132.33 108.93 128.44 103.07
  Q 127.48 101.61 127.54 100.35
  Q 127.64 98.62 129.14 97.63
  Q 130.46 96.76 129.85 98.22
  Q 128.04 102.54 132.50 103.75
  Q 135.64 104.61 133.69 101.06
  Q 131.39 96.88 135.88 100.17
  Z"
/>
<path fill="#f02321" d="
  M 105.34 133.47
  Q 104.53 134.58 103.58 135.58
  Q 101.59 137.70 99.64 136.58
  Q 98.41 135.87 97.13 134.14
  Q 94.72 130.89 98.59 128.27
  C 98.86 128.08 99.19 128.00 99.50 128.06
  Q 101.03 128.35 98.66 129.68
  C 98.09 130.00 97.84 130.70 98.10 131.31
  Q 100.05 135.92 103.30 133.57
  C 103.58 133.37 103.57 132.94 103.27 132.76
  Q 102.21 132.12 101.56 131.12
  C 101.39 130.84 101.42 130.50 101.63 130.31
  Q 102.37 129.66 103.50 130.50
  Q 105.62 132.07 105.72 130.14
  Q 105.76 129.35 105.17 128.65
  Q 104.22 127.53 102.99 126.71
  C 102.70 126.52 102.50 126.25 102.44 125.96
  Q 101.73 122.74 105.25 124.25
  Q 107.14 125.06 107.06 123.74
  Q 107.04 123.31 106.53 122.52
  Q 105.58 121.07 107.69 121.25
  C 108.01 121.28 108.31 121.41 108.56 121.64
  L 112.64 125.41
  C 112.87 125.62 112.97 125.95 112.88 126.24
  Q 112.16 128.54 109.56 127.19
  Q 107.91 126.32 107.62 127.68
  C 107.56 127.93 107.69 128.25 107.94 128.51
  Q 108.57 129.17 108.46 130.04
  Q 108.37 130.65 107.70 131.26
  Q 107.10 131.81 106.47 132.32
  Q 105.82 132.83 105.34 133.47
  Z"
/>
<path fill="#f2eeee" d="
  M 151.04 155.06
  Q 150.21 177.86 150.75 184.00
  Q 150.97 186.54 150.00 188.32
  Q 149.04 190.08 146.70 190.61
  Q 142.95 191.45 141.46 188.19
  Q 140.75 186.63 140.75 183.19
  Q 140.75 161.47 140.75 139.75
  Q 140.75 137.22 141.87 135.55
  Q 143.05 133.78 145.29 133.43
  Q 148.00 133.02 149.81 135.44
  Q 156.54 144.38 163.07 153.76
  C 163.42 154.25 164.14 154.26 164.49 153.77
  Q 169.28 147.03 173.95 140.76
  Q 173.99 140.70 175.78 138.03
  Q 176.99 136.23 178.62 134.84
  Q 180.38 133.33 182.43 133.56
  Q 186.94 134.08 187.00 139.50
  Q 187.24 159.28 186.79 184.93
  Q 186.74 187.67 185.90 188.87
  Q 185.01 190.16 183.44 190.69
  Q 182.06 191.16 180.56 190.64
  Q 176.64 189.28 176.67 184.50
  Q 176.75 170.13 176.75 155.51
  Q 176.75 154.08 175.91 155.23
  Q 172.92 159.29 169.94 163.40
  Q 167.44 166.86 166.09 167.64
  Q 163.72 169.00 161.26 167.39
  Q 160.05 166.60 158.26 164.11
  Q 154.91 159.45 151.37 154.95
  Q 151.06 154.56 151.04 155.06
  Z"
/>
<path fill="#f02321" d="
  M 91.46 145.66
  C 91.72 144.83 91.09 143.98 90.22 143.99
  Q 85.83 144.04 86.02 141.20
  C 86.08 140.28 86.65 139.47 87.49 139.09
  Q 90.35 137.80 90.36 139.45
  C 90.36 139.78 90.52 140.06 90.76 140.17
  Q 92.49 140.99 94.24 140.17
  C 94.55 140.03 94.72 139.72 94.67 139.43
  Q 94.43 138.16 92.40 136.94
  C 92.03 136.72 91.83 136.31 91.87 135.88
  Q 92.29 132.15 94.81 135.44
  Q 96.36 137.47 98.56 138.75
  C 98.81 138.90 98.91 139.20 98.79 139.44
  Q 96.91 143.26 93.99 146.37
  Q 93.38 147.01 92.70 147.20
  Q 90.82 147.74 91.46 145.66
  Z"
/>
<path fill="#f2eeee" d="
  M 86.6151 167.6219
  C 86.66 180.39 76.35 190.77 63.5859 190.8124
  L 59.3260 190.8273
  C 46.56 190.87 36.18 180.56 36.1354 167.7981
  L 36.1049 159.0381
  C 36.06 146.27 46.37 135.89 59.1341 135.8476
  L 63.3940 135.8327
  C 76.16 135.79 86.54 146.10 86.5846 158.8619
  L 86.6151 167.6219
  Z
  M 68.81 147.19
  Q 64.04 144.09 57.70 145.72
  Q 51.38 147.33 49.40 153.55
  Q 47.26 160.25 47.97 167.02
  Q 48.71 174.04 51.91 177.67
  Q 56.18 182.51 64.25 181.02
  Q 71.05 179.77 73.28 173.30
  Q 75.53 166.77 74.82 160.04
  Q 74.35 155.53 73.42 153.01
  Q 72.06 149.29 68.81 147.19
  Z"
/>
<path fill="#f02321" d="
  M 68.81 147.19
  Q 72.06 149.29 73.42 153.01
  Q 74.35 155.53 74.82 160.04
  Q 75.53 166.77 73.28 173.30
  Q 71.05 179.77 64.25 181.02
  Q 56.18 182.51 51.91 177.67
  Q 48.71 174.04 47.97 167.02
  Q 47.26 160.25 49.40 153.55
  Q 51.38 147.33 57.70 145.72
  Q 64.04 144.09 68.81 147.19
  Z"
/>
<path fill="#f02321" d="
  M 26.69 210.56
  Q 23.55 208.35 21.80 206.14
  C 21.60 205.89 21.54 205.56 21.64 205.26
  Q 22.41 202.98 24.71 202.20
  Q 25.19 202.04 24.95 202.49
  Q 22.18 207.62 27.44 205.19
  Q 29.91 204.04 28.31 206.06
  Q 27.06 207.65 27.80 209.55
  C 27.94 209.91 27.95 210.25 27.84 210.47
  Q 27.50 211.13 26.69 210.56
  Z"
/>
</svg>
